<svg width="109" height="50" viewBox="0 0 109 50" fill="none" xmlns="http://www.w3.org/2000/svg">
<rect x="0.416199" y="0.79126" width="108" height="49" rx="8" fill="#00875F"/>
<path d="M29.8615 27.7366H26.9631V25.9084H29.8615C30.3094 25.9084 30.674 25.8355 30.9553 25.6897C31.2365 25.5387 31.4422 25.3303 31.5724 25.0647C31.7027 24.7991 31.7678 24.4996 31.7678 24.1663C31.7678 23.8277 31.7027 23.5126 31.5724 23.2209C31.4422 22.9293 31.2365 22.6949 30.9553 22.5178C30.674 22.3407 30.3094 22.2522 29.8615 22.2522H27.7756V31.7913H25.4318V20.4163H29.8615C30.7521 20.4163 31.5152 20.5777 32.1506 20.9006C32.7912 21.2183 33.2808 21.6584 33.6193 22.2209C33.9579 22.7834 34.1271 23.4267 34.1271 24.1506C34.1271 24.885 33.9579 25.5204 33.6193 26.0569C33.2808 26.5933 32.7912 27.0074 32.1506 27.2991C31.5152 27.5907 30.7521 27.7366 29.8615 27.7366ZM40.6037 29.7678V23.3381H42.8537V31.7913H40.7365L40.6037 29.7678ZM40.8537 28.0334L41.5178 28.0178C41.5178 28.5803 41.4527 29.1038 41.3224 29.5881C41.1922 30.0673 40.9969 30.484 40.7365 30.8381C40.4761 31.1871 40.148 31.4605 39.7521 31.6584C39.3563 31.8512 38.8902 31.9475 38.3537 31.9475C37.9422 31.9475 37.562 31.8902 37.2131 31.7756C36.8693 31.6558 36.5724 31.4709 36.3224 31.2209C36.0777 30.9657 35.8849 30.6402 35.7443 30.2444C35.6089 29.8433 35.5412 29.3616 35.5412 28.7991V23.3381H37.7912V28.8147C37.7912 29.0647 37.8198 29.2756 37.8771 29.4475C37.9396 29.6194 38.0256 29.76 38.1349 29.8694C38.2443 29.9788 38.3719 30.0569 38.5178 30.1038C38.6688 30.1506 38.8355 30.1741 39.0178 30.1741C39.4813 30.1741 39.8459 30.0803 40.1115 29.8928C40.3823 29.7053 40.5724 29.4501 40.6818 29.1272C40.7964 28.7991 40.8537 28.4345 40.8537 28.0334ZM44.5724 19.7913H46.8224V29.8538L46.5959 31.7913H44.5724V19.7913ZM52.174 27.4788V27.6428C52.174 28.273 52.1063 28.8512 51.9709 29.3772C51.8407 29.9032 51.6376 30.359 51.3615 30.7444C51.0855 31.1246 50.7417 31.4215 50.3303 31.635C49.924 31.8433 49.4448 31.9475 48.8928 31.9475C48.3771 31.9475 47.9292 31.8433 47.549 31.635C47.174 31.4267 46.8589 31.1324 46.6037 30.7522C46.3485 30.372 46.1428 29.9267 45.9865 29.4163C45.8303 28.9058 45.7131 28.3486 45.6349 27.7444V27.385C45.7131 26.7808 45.8303 26.2236 45.9865 25.7131C46.1428 25.2027 46.3485 24.7574 46.6037 24.3772C46.8589 23.997 47.174 23.7027 47.549 23.4944C47.924 23.2861 48.3667 23.1819 48.8771 23.1819C49.4344 23.1819 49.9188 23.2887 50.3303 23.5022C50.7469 23.7105 51.0907 24.0074 51.3615 24.3928C51.6376 24.773 51.8407 25.2262 51.9709 25.7522C52.1063 26.273 52.174 26.8486 52.174 27.4788ZM49.924 27.6428V27.4788C49.924 27.135 49.898 26.8121 49.8459 26.51C49.799 26.2027 49.7157 25.9345 49.5959 25.7053C49.4761 25.4709 49.312 25.2861 49.1037 25.1506C48.9006 25.0152 48.6376 24.9475 48.3146 24.9475C48.0073 24.9475 47.7469 24.9996 47.5334 25.1038C47.3198 25.2079 47.1428 25.3538 47.0021 25.5413C46.8667 25.7288 46.7652 25.9527 46.6974 26.2131C46.6297 26.4683 46.5881 26.7496 46.5724 27.0569V28.0803C46.5881 28.4918 46.6558 28.8564 46.7756 29.1741C46.9006 29.4866 47.0881 29.734 47.3381 29.9163C47.5933 30.0933 47.924 30.1819 48.3303 30.1819C48.648 30.1819 48.911 30.1194 49.1193 29.9944C49.3277 29.8694 49.4891 29.6923 49.6037 29.4631C49.7235 29.234 49.8068 28.9657 49.8537 28.6584C49.9006 28.3459 49.924 28.0074 49.924 27.6428ZM55.9474 19.7913V31.7913H53.6896V19.7913H55.9474ZM60.1818 23.3381V31.7913H57.924V23.3381H60.1818ZM57.7834 21.135C57.7834 20.8069 57.898 20.5361 58.1271 20.3225C58.3563 20.109 58.6636 20.0022 59.049 20.0022C59.4292 20.0022 59.7339 20.109 59.9631 20.3225C60.1974 20.5361 60.3146 20.8069 60.3146 21.135C60.3146 21.4631 60.1974 21.734 59.9631 21.9475C59.7339 22.1611 59.4292 22.2678 59.049 22.2678C58.6636 22.2678 58.3563 22.1611 58.1271 21.9475C57.898 21.734 57.7834 21.4631 57.7834 21.135ZM65.5334 30.1897C65.8094 30.1897 66.0542 30.1376 66.2678 30.0334C66.4813 29.9241 66.648 29.773 66.7678 29.5803C66.8928 29.3824 66.9579 29.1506 66.9631 28.885H69.0803C69.0751 29.4788 68.9162 30.0074 68.6037 30.4709C68.2912 30.9293 67.8719 31.2913 67.3459 31.5569C66.8198 31.8173 66.2313 31.9475 65.5803 31.9475C64.924 31.9475 64.3511 31.8381 63.8615 31.6194C63.3771 31.4006 62.9735 31.0986 62.6506 30.7131C62.3277 30.3225 62.0855 29.8694 61.924 29.3538C61.7626 28.8329 61.6818 28.2756 61.6818 27.6819V27.4553C61.6818 26.8564 61.7626 26.2991 61.924 25.7834C62.0855 25.2626 62.3277 24.8095 62.6506 24.4241C62.9735 24.0334 63.3771 23.7288 63.8615 23.51C64.3459 23.2913 64.9136 23.1819 65.5646 23.1819C66.2573 23.1819 66.8641 23.3147 67.3849 23.5803C67.911 23.8459 68.3224 24.2262 68.6193 24.7209C68.9214 25.2105 69.0751 25.7913 69.0803 26.4631H66.9631C66.9579 26.1819 66.898 25.9267 66.7834 25.6975C66.674 25.4683 66.5126 25.2861 66.299 25.1506C66.0907 25.01 65.8329 24.9397 65.5256 24.9397C65.1974 24.9397 64.9292 25.01 64.7209 25.1506C64.5126 25.2861 64.3511 25.4736 64.2365 25.7131C64.1219 25.9475 64.0412 26.2157 63.9943 26.5178C63.9527 26.8147 63.9318 27.1272 63.9318 27.4553V27.6819C63.9318 28.01 63.9527 28.3251 63.9943 28.6272C64.036 28.9293 64.1141 29.1975 64.2287 29.4319C64.3485 29.6663 64.5126 29.8512 64.7209 29.9866C64.9292 30.122 65.2001 30.1897 65.5334 30.1897ZM74.9474 29.885V26.1194C74.9474 25.8486 74.9032 25.6168 74.8146 25.4241C74.7261 25.2262 74.5881 25.0725 74.4006 24.9631C74.2183 24.8538 73.9813 24.7991 73.6896 24.7991C73.4396 24.7991 73.2235 24.8433 73.0412 24.9319C72.8589 25.0152 72.7183 25.1376 72.6193 25.2991C72.5204 25.4553 72.4709 25.6402 72.4709 25.8538H70.2209C70.2209 25.4944 70.3042 25.1532 70.4709 24.8303C70.6376 24.5074 70.8797 24.2236 71.1974 23.9788C71.5152 23.7288 71.8928 23.5334 72.3303 23.3928C72.773 23.2522 73.2678 23.1819 73.8146 23.1819C74.4709 23.1819 75.0542 23.2913 75.5646 23.51C76.0751 23.7288 76.4761 24.0569 76.7678 24.4944C77.0646 24.9319 77.2131 25.4788 77.2131 26.135V29.7522C77.2131 30.2157 77.2417 30.5959 77.299 30.8928C77.3563 31.1845 77.4396 31.4397 77.549 31.6584V31.7913H75.2756C75.1662 31.5621 75.0829 31.2756 75.0256 30.9319C74.9735 30.5829 74.9474 30.234 74.9474 29.885ZM75.2443 26.6428L75.2599 27.9163H74.0021C73.7053 27.9163 73.4474 27.9501 73.2287 28.0178C73.0099 28.0855 72.8303 28.1819 72.6896 28.3069C72.549 28.4267 72.4448 28.5673 72.3771 28.7288C72.3146 28.8902 72.2834 29.0673 72.2834 29.26C72.2834 29.4527 72.3277 29.6272 72.4162 29.7834C72.5047 29.9345 72.6323 30.0543 72.799 30.1428C72.9657 30.2262 73.161 30.2678 73.3849 30.2678C73.7235 30.2678 74.0178 30.2001 74.2678 30.0647C74.5178 29.9293 74.7105 29.7626 74.8459 29.5647C74.9865 29.3668 75.0594 29.1793 75.0646 29.0022L75.6584 29.9553C75.5751 30.1689 75.4605 30.3902 75.3146 30.6194C75.174 30.8486 74.9943 31.0647 74.7756 31.2678C74.5568 31.4657 74.2938 31.6298 73.9865 31.76C73.6792 31.885 73.3146 31.9475 72.8928 31.9475C72.3563 31.9475 71.8693 31.8407 71.4318 31.6272C70.9995 31.4084 70.6558 31.109 70.4006 30.7288C70.1506 30.3433 70.0256 29.9058 70.0256 29.4163C70.0256 28.9736 70.1089 28.5803 70.2756 28.2366C70.4422 27.8928 70.687 27.6038 71.0099 27.3694C71.3381 27.1298 71.7469 26.9501 72.2365 26.8303C72.7261 26.7053 73.2938 26.6428 73.9396 26.6428H75.2443ZM81.1974 25.1819V31.7913H78.9474V23.3381H81.0646L81.1974 25.1819ZM83.7443 23.2834L83.7053 25.3694C83.5959 25.3538 83.4631 25.3407 83.3068 25.3303C83.1558 25.3147 83.0178 25.3069 82.8928 25.3069C82.5751 25.3069 82.299 25.3486 82.0646 25.4319C81.8355 25.51 81.6428 25.6272 81.4865 25.7834C81.3355 25.9397 81.2209 26.1298 81.1428 26.3538C81.0698 26.5777 81.0282 26.8329 81.0178 27.1194L80.5646 26.9788C80.5646 26.4319 80.6193 25.9293 80.7287 25.4709C80.8381 25.0074 80.9969 24.6038 81.2053 24.26C81.4188 23.9163 81.6792 23.6506 81.9865 23.4631C82.2938 23.2756 82.6454 23.1819 83.0412 23.1819C83.1662 23.1819 83.2938 23.1923 83.424 23.2131C83.5542 23.2288 83.661 23.2522 83.7443 23.2834Z" fill="white"/>
</svg>
